# This file uses centimeters as units for non-parametric coordinates.

mtllib environment_wall.mtl
g default
v -6.952820 -0.001158 12.043589
v -6.952820 -0.001158 9.641074
v -6.952820 -0.001158 7.238562
v -6.952820 -0.001158 4.836046
v -6.952820 -0.001158 2.433532
v -6.952820 -0.001158 0.031018
v -6.952820 -0.001158 -2.371497
v -6.952820 -0.001158 -4.774011
v -6.952820 -0.001158 -7.176527
v -6.952820 -0.001158 -9.579042
v -6.952820 -0.001158 -11.981555
v -6.952820 0.860274 12.043589
v -6.952820 0.860274 9.641074
v -6.952820 0.860274 4.836046
v -6.952820 0.860274 2.433532
v -6.952820 0.860274 0.031018
v -6.952820 0.860274 -2.371497
v -6.952820 0.860274 -4.774011
v -6.952820 0.860274 -7.176527
v -6.952820 0.860274 -9.579042
v -6.952820 0.860274 -11.981555
v -6.952820 1.721706 12.043589
v -6.952820 1.721706 9.641074
v -6.952820 1.721706 4.836046
v -6.952820 1.721706 2.433532
v -6.952820 1.721706 0.031018
v -6.952820 1.721706 -2.371497
v -6.952820 1.721706 -4.774011
v -6.952820 1.721706 -7.176527
v -6.952820 1.721706 -9.579042
v -6.952820 1.721706 -11.981555
v -6.952820 2.583139 12.043589
v -6.952820 2.583139 9.641074
v -6.952820 2.583139 4.836046
v -6.952820 2.583139 2.433532
v -6.952820 2.583139 0.031018
v -6.952820 2.583139 -2.371497
v -6.952820 2.583139 -4.774011
v -6.952820 2.583139 -7.176527
v -6.952820 2.583139 -9.579042
v -6.952820 2.583139 -11.981555
v -6.952820 3.444571 12.043589
v -6.952820 3.444571 9.641074
v -6.952820 3.444571 4.836046
v -6.952820 3.444571 2.433532
v -6.952820 3.444571 0.031018
v -6.952820 3.444571 -2.371497
v -6.952820 3.444571 -4.774011
v -6.952820 3.444571 -7.176527
v -6.952820 3.444571 -9.579042
v -6.952820 3.444571 -11.981555
v -6.952820 4.306003 12.043589
v -6.952820 4.306003 9.641074
v -6.952820 4.306003 4.836046
v -6.952820 4.306003 2.433532
v -6.952820 4.306003 0.031018
v -6.952820 4.306003 -2.371497
v -6.952820 4.306003 -4.774011
v -6.952820 4.306003 -7.176527
v -6.952820 4.306003 -9.579042
v -6.952820 4.306003 -11.981555
v -6.952820 5.167436 12.043589
v -6.952820 5.167436 9.641074
v -6.952820 5.167436 7.238562
v -6.952820 5.167436 4.836046
v -6.952820 5.167436 2.433532
v -6.952820 5.167436 0.031018
v -6.952820 5.167436 -2.371497
v -6.952820 5.167436 -4.774011
v -6.952820 5.167436 -7.176527
v -6.952820 5.167436 -9.579042
v -6.952820 5.167436 -11.981555
v -6.952820 6.028868 12.043589
v -6.952820 6.028868 9.641074
v -6.952820 6.028868 7.238562
v -6.952820 6.028868 4.836046
v -6.952820 6.028868 2.433532
v -6.952820 6.028868 0.031018
v -6.952820 6.028868 -2.371497
v -6.952820 6.028868 -4.774011
v -6.952820 6.028868 -7.176527
v -6.952820 6.028868 -9.579042
v -6.952820 6.028868 -11.981555
v -6.952820 6.890301 12.043589
v -6.952820 6.890301 9.641074
v -6.952820 6.890301 7.238562
v -6.952820 6.890301 4.836046
v -6.952820 6.890301 2.433532
v -6.952820 6.890301 0.031018
v -6.952820 6.890301 -2.371497
v -6.952820 6.890301 -4.774011
v -6.952820 6.890301 -7.176527
v -6.952820 6.890301 -9.579042
v -6.952820 6.890301 -11.981555
v -6.952820 7.751733 12.043589
v -6.952820 7.751733 9.641074
v -6.952820 7.751733 7.238562
v -6.952820 7.751733 4.836046
v -6.952820 7.751733 2.433532
v -6.952820 7.751733 0.031018
v -6.952820 7.751733 -2.371497
v -6.952820 7.751733 -4.774011
v -6.952820 7.751733 -7.176527
v -6.952820 7.751733 -9.579042
v -6.952820 7.751733 -11.981555
v -6.952820 8.613165 12.043589
v -6.952820 8.613165 9.641074
v -6.952820 8.613165 7.238562
v -6.952820 8.613165 4.836046
v -6.952820 8.613165 2.433532
v -6.952820 8.613165 0.031018
v -6.952820 8.613165 -2.371497
v -6.952820 8.613165 -4.774011
v -6.952820 8.613165 -7.176527
v -6.952820 8.613165 -9.579042
v -6.952820 8.613165 -11.981555
v -7.233340 -0.001158 9.641074
v -7.233338 -0.001158 7.238562
v -7.233339 0.860274 7.238562
v -7.233340 0.860274 9.641074
v -7.233338 -0.001158 4.836046
v -7.233338 0.860274 4.836046
v -7.233339 1.721706 7.238562
v -7.233340 1.721706 9.641074
v -7.233338 1.721706 4.836046
v -7.233339 2.583139 7.238562
v -7.233340 2.583139 9.641074
v -7.233338 2.583139 4.836046
v -7.233339 3.444571 7.238562
v -7.233340 3.444571 9.641074
v -7.233338 3.444571 4.836046
v -7.233339 4.306003 7.238562
v -7.233340 4.306003 9.641074
v -7.233338 4.306003 4.836046
v -7.233338 5.167436 7.238562
v -7.233340 5.167436 9.641074
v -7.233338 5.167436 4.836046
vt 0.000000 -0.000000
vt 0.100000 -0.000000
vt 0.100000 0.100000
vt 0.000000 0.100000
vt 0.100000 -0.000000
vt 0.200000 -0.000000
vt 0.200000 0.100000
vt 0.100000 0.100000
vt 0.300000 -0.000000
vt 0.300000 0.100000
vt 0.300000 -0.000000
vt 0.400000 -0.000000
vt 0.400000 0.100000
vt 0.300000 0.100000
vt 0.500000 -0.000000
vt 0.500000 0.100000
vt 0.600000 -0.000000
vt 0.600000 0.100000
vt 0.700000 -0.000000
vt 0.700000 0.100000
vt 0.800000 -0.000000
vt 0.800000 0.100000
vt 0.900000 -0.000000
vt 0.900000 0.100000
vt 1.000000 -0.000000
vt 1.000000 0.100000
vt 0.100000 0.200000
vt 0.000000 0.200000
vt 0.200000 0.200000
vt 0.100000 0.200000
vt 0.300000 0.200000
vt 0.400000 0.200000
vt 0.300000 0.200000
vt 0.500000 0.200000
vt 0.600000 0.200000
vt 0.700000 0.200000
vt 0.800000 0.200000
vt 0.900000 0.200000
vt 1.000000 0.200000
vt 0.100000 0.300000
vt 0.000000 0.300000
vt 0.200000 0.300000
vt 0.100000 0.300000
vt 0.300000 0.300000
vt 0.400000 0.300000
vt 0.300000 0.300000
vt 0.500000 0.300000
vt 0.600000 0.300000
vt 0.700000 0.300000
vt 0.800000 0.300000
vt 0.900000 0.300000
vt 1.000000 0.300000
vt 0.100000 0.400000
vt 0.000000 0.400000
vt 0.200000 0.400000
vt 0.100000 0.400000
vt 0.300000 0.400000
vt 0.400000 0.400000
vt 0.300000 0.400000
vt 0.500000 0.400000
vt 0.600000 0.400000
vt 0.700000 0.400000
vt 0.800000 0.400000
vt 0.900000 0.400000
vt 1.000000 0.400000
vt 0.100000 0.500000
vt 0.000000 0.500000
vt 0.200000 0.500000
vt 0.100000 0.500000
vt 0.300000 0.500000
vt 0.400000 0.500000
vt 0.300000 0.500000
vt 0.500000 0.500000
vt 0.600000 0.500000
vt 0.700000 0.500000
vt 0.800000 0.500000
vt 0.900000 0.500000
vt 1.000000 0.500000
vt 0.100000 0.600000
vt 0.000000 0.600000
vt 0.200000 0.600000
vt 0.100000 0.600000
vt 0.300000 0.600000
vt 0.400000 0.600000
vt 0.300000 0.600000
vt 0.500000 0.600000
vt 0.600000 0.600000
vt 0.700000 0.600000
vt 0.800000 0.600000
vt 0.900000 0.600000
vt 1.000000 0.600000
vt 0.100000 0.700000
vt 0.000000 0.700000
vt 0.200000 0.600000
vt 0.200000 0.700000
vt 0.300000 0.700000
vt 0.400000 0.700000
vt 0.500000 0.700000
vt 0.600000 0.700000
vt 0.700000 0.700000
vt 0.800000 0.700000
vt 0.900000 0.700000
vt 1.000000 0.700000
vt 0.100000 0.800000
vt 0.000000 0.800000
vt 0.200000 0.800000
vt 0.300000 0.800000
vt 0.400000 0.800000
vt 0.500000 0.800000
vt 0.600000 0.800000
vt 0.700000 0.800000
vt 0.800000 0.800000
vt 0.900000 0.800000
vt 1.000000 0.800000
vt 0.100000 0.900000
vt 0.000000 0.900000
vt 0.200000 0.900000
vt 0.300000 0.900000
vt 0.400000 0.900000
vt 0.500000 0.900000
vt 0.600000 0.900000
vt 0.700000 0.900000
vt 0.800000 0.900000
vt 0.900000 0.900000
vt 1.000000 0.900000
vt 0.100000 1.000000
vt 0.000000 1.000000
vt 0.200000 1.000000
vt 0.300000 1.000000
vt 0.400000 1.000000
vt 0.500000 1.000000
vt 0.600000 1.000000
vt 0.700000 1.000000
vt 0.800000 1.000000
vt 0.900000 1.000000
vt 1.000000 1.000000
vt 0.200000 -0.000000
vn 1.000000 0.000000 0.000000
vn 1.000000 0.000000 0.000000
vn 1.000000 0.000000 0.000000
vn 1.000000 0.000000 0.000000
vn 1.000000 0.000000 0.000000
vn 1.000000 0.000000 0.000000
vn 1.000000 0.000000 0.000000
vn 1.000000 0.000000 0.000000
vn 1.000000 0.000001 0.000000
vn 1.000000 0.000000 0.000000
vn 1.000000 0.000000 0.000000
vn 1.000000 0.000000 0.000000
vn 1.000000 0.000000 0.000000
vn 1.000000 0.000000 0.000000
vn 1.000000 0.000000 0.000000
vn 1.000000 0.000000 0.000000
vn 1.000000 0.000000 0.000000
vn 1.000000 0.000000 0.000000
vn 1.000000 0.000000 0.000000
vn 1.000000 0.000000 0.000000
vn 1.000000 0.000000 0.000000
vn 1.000000 0.000000 0.000000
vn 1.000000 0.000000 0.000000
vn 1.000000 0.000000 0.000000
vn 1.000000 0.000000 0.000000
vn 1.000000 0.000000 0.000000
vn 1.000000 0.000000 0.000000
vn 1.000000 0.000000 0.000000
vn 1.000000 0.000000 0.000000
vn 1.000000 0.000000 0.000000
vn 1.000000 0.000000 0.000000
vn 1.000000 0.000000 0.000000
vn 1.000000 0.000000 0.000000
vn 1.000000 0.000000 0.000000
vn 1.000000 0.000000 0.000000
vn 1.000000 0.000000 0.000000
vn 1.000000 0.000000 0.000000
vn 1.000000 0.000000 0.000000
vn 1.000000 0.000000 0.000000
vn 1.000000 0.000000 0.000000
vn 1.000000 0.000000 0.000000
vn 1.000000 0.000000 0.000000
vn 1.000000 0.000000 0.000000
vn 1.000000 0.000000 0.000000
vn 1.000000 0.000000 0.000000
vn 1.000000 0.000000 0.000000
vn 1.000000 0.000000 0.000000
vn 1.000000 0.000000 0.000000
vn 1.000000 0.000000 0.000000
vn 1.000000 0.000000 0.000000
vn 1.000000 0.000000 0.000000
vn 1.000000 0.000000 0.000000
vn 1.000000 0.000000 0.000000
vn 1.000000 0.000000 0.000000
vn 1.000000 0.000000 0.000000
vn 1.000000 0.000000 0.000000
vn 1.000000 0.000000 0.000000
vn 1.000000 0.000000 0.000000
vn 1.000000 0.000000 0.000000
vn 1.000000 0.000000 0.000000
vn 1.000000 0.000000 0.000000
vn 1.000000 0.000000 0.000000
vn 1.000000 0.000000 0.000000
vn 1.000000 0.000000 0.000000
vn 1.000000 0.000000 0.000000
vn 1.000000 0.000000 0.000000
vn 1.000000 0.000000 0.000000
vn 1.000000 -0.000000 0.000000
vn 1.000000 0.000000 0.000000
vn 1.000000 -0.000000 0.000000
vn 1.000000 0.000000 0.000000
vn 1.000000 0.000000 0.000000
vn 1.000000 0.000000 0.000000
vn 1.000000 0.000000 0.000000
vn 1.000000 0.000000 0.000000
vn 1.000000 0.000000 0.000000
vn 1.000000 0.000000 0.000000
vn 1.000000 0.000000 0.000000
vn 1.000000 0.000000 0.000000
vn 1.000000 0.000000 0.000000
vn 1.000000 -0.000000 0.000000
vn 1.000000 0.000000 0.000000
vn 1.000000 -0.000001 0.000000
vn 1.000000 0.000000 0.000000
vn 1.000000 0.000000 0.000000
vn 1.000000 0.000000 0.000000
vn 1.000000 0.000000 0.000000
vn 1.000000 0.000000 0.000000
vn 1.000000 0.000000 0.000000
vn 1.000000 0.000000 0.000000
vn 1.000000 0.000000 0.000000
vn 1.000000 0.000000 0.000000
vn 1.000000 0.000000 0.000000
vn 1.000000 0.000000 0.000000
vn 1.000000 0.000000 0.000000
vn 1.000000 0.000000 0.000000
vn 1.000000 0.000000 0.000000
vn 1.000000 0.000000 0.000000
vn 1.000000 0.000000 0.000000
vn 1.000000 0.000000 0.000000
vn 1.000000 0.000000 0.000000
vn 1.000000 0.000000 0.000000
vn 1.000000 0.000000 0.000000
vn 1.000000 0.000000 0.000000
vn 1.000000 0.000000 0.000000
vn 1.000000 0.000000 0.000000
vn 1.000000 0.000000 0.000000
vn 1.000000 0.000000 0.000000
vn 1.000000 0.000000 0.000000
vn 1.000000 0.000000 0.000000
vn 1.000000 0.000000 0.000000
vn 1.000000 0.000000 0.000000
vn 1.000000 0.000000 0.000000
vn 1.000000 0.000000 0.000000
vn 1.000000 0.000000 0.000000
vn 1.000000 0.000000 0.000000
vn 1.000000 0.000000 0.000000
vn 1.000000 0.000000 0.000000
vn 1.000000 0.000000 0.000000
vn 1.000000 0.000000 0.000000
vn 1.000000 0.000000 0.000000
vn 1.000000 0.000000 0.000000
vn 1.000000 0.000000 0.000000
vn 1.000000 0.000000 0.000000
vn 1.000000 0.000000 0.000000
vn 1.000000 0.000000 0.000000
vn 1.000000 0.000000 0.000000
vn 1.000000 0.000000 0.000000
vn 1.000000 0.000000 0.000000
vn 1.000000 0.000000 0.000000
vn 1.000000 0.000000 0.000000
vn 1.000000 0.000000 0.000000
vn 1.000000 0.000000 0.000000
vn 1.000000 0.000000 0.000000
vn 1.000000 0.000000 0.000000
vn 1.000000 0.000000 0.000000
vn 0.000000 1.000000 0.000000
vn 0.000000 1.000000 0.000000
vn 0.000000 1.000000 0.000000
vn 0.000000 1.000000 0.000000
vn 0.000000 0.000000 -1.000000
vn 0.000000 0.000000 -1.000000
vn 0.000000 0.000000 -1.000000
vn 0.000000 0.000000 -1.000000
vn 0.000000 1.000000 0.000000
vn 0.000000 1.000000 0.000000
vn 0.000000 0.000000 1.000000
vn 0.000000 0.000000 1.000000
vn 0.000000 0.000000 1.000000
vn 0.000000 0.000000 1.000000
vn 0.000000 0.000000 -1.000000
vn 0.000000 0.000000 -1.000000
vn 0.000000 0.000000 1.000000
vn 0.000000 0.000000 1.000000
vn 0.000000 0.000000 -1.000000
vn 0.000000 0.000000 -1.000000
vn 0.000000 0.000000 1.000000
vn 0.000000 0.000000 1.000000
vn 0.000000 0.000000 -1.000000
vn 0.000000 0.000000 -1.000000
vn 0.000000 0.000000 1.000000
vn 0.000000 0.000000 1.000000
vn 0.000000 0.000000 -1.000000
vn 0.000000 0.000000 -1.000000
vn 0.000000 0.000000 1.000000
vn 0.000000 0.000000 1.000000
vn 0.000000 -1.000000 0.000000
vn 0.000000 -1.000000 0.000000
vn 0.000000 -1.000000 0.000000
vn 0.000000 -1.000000 0.000000
vn 0.000000 0.000000 -1.000000
vn 0.000000 0.000000 -1.000000
vn 0.000000 0.000000 1.000000
vn 0.000000 0.000000 1.000000
vn 0.000000 -1.000000 0.000000
vn 0.000000 -1.000000 0.000000
s 1
g left_wall
usemtl initialShadingGroup
f 1/1/1 2/2/2 13/3/3 12/4/4
s 2
f 117/5/5 118/6/6 119/7/7 120/8/8
f 118/6/6 121/9/9 122/10/10 119/7/7
s 1
f 4/11/11 5/12/12 15/13/13 14/14/14
f 5/12/12 6/15/15 16/16/16 15/13/13
f 6/15/15 7/17/17 17/18/18 16/16/16
f 7/17/17 8/19/19 18/20/20 17/18/18
f 8/19/19 9/21/21 19/22/22 18/20/20
f 9/21/21 10/23/23 20/24/24 19/22/22
f 10/23/23 11/25/25 21/26/26 20/24/24
f 12/4/4 13/3/3 23/27/27 22/28/28
s 2
f 120/8/8 119/7/7 123/29/29 124/30/30
f 119/7/7 122/10/10 125/31/31 123/29/29
s 1
f 14/14/14 15/13/13 25/32/32 24/33/33
f 15/13/13 16/16/16 26/34/34 25/32/32
f 16/16/16 17/18/18 27/35/35 26/34/34
f 17/18/18 18/20/20 28/36/36 27/35/35
f 18/20/20 19/22/22 29/37/37 28/36/36
f 19/22/22 20/24/24 30/38/38 29/37/37
f 20/24/24 21/26/26 31/39/39 30/38/38
f 22/28/28 23/27/27 33/40/40 32/41/41
s 2
f 124/30/30 123/29/29 126/42/42 127/43/43
f 123/29/29 125/31/31 128/44/44 126/42/42
s 1
f 24/33/33 25/32/32 35/45/45 34/46/46
f 25/32/32 26/34/34 36/47/47 35/45/45
f 26/34/34 27/35/35 37/48/48 36/47/47
f 27/35/35 28/36/36 38/49/49 37/48/48
f 28/36/36 29/37/37 39/50/50 38/49/49
f 29/37/37 30/38/38 40/51/51 39/50/50
f 30/38/38 31/39/39 41/52/52 40/51/51
f 32/41/41 33/40/40 43/53/53 42/54/54
s 2
f 127/43/43 126/42/42 129/55/55 130/56/56
f 126/42/42 128/44/44 131/57/57 129/55/55
s 1
f 34/46/46 35/45/45 45/58/58 44/59/59
f 35/45/45 36/47/47 46/60/60 45/58/58
f 36/47/47 37/48/48 47/61/61 46/60/60
f 37/48/48 38/49/49 48/62/62 47/61/61
f 38/49/49 39/50/50 49/63/63 48/62/62
f 39/50/50 40/51/51 50/64/64 49/63/63
f 40/51/51 41/52/52 51/65/65 50/64/64
f 42/54/54 43/53/53 53/66/66 52/67/67
s 2
f 130/56/56 129/55/55 132/68/68 133/69/69
f 129/55/55 131/57/57 134/70/70 132/68/68
s 1
f 44/59/59 45/58/58 55/71/71 54/72/72
f 45/58/58 46/60/60 56/73/73 55/71/71
f 46/60/60 47/61/61 57/74/74 56/73/73
f 47/61/61 48/62/62 58/75/75 57/74/74
f 48/62/62 49/63/63 59/76/76 58/75/75
f 49/63/63 50/64/64 60/77/77 59/76/76
f 50/64/64 51/65/65 61/78/78 60/77/77
f 52/67/67 53/66/66 63/79/79 62/80/80
s 2
f 133/69/69 132/68/68 135/81/81 136/82/82
f 132/68/68 134/70/70 137/83/83 135/81/81
s 1
f 54/72/72 55/71/71 66/84/84 65/85/85
f 55/71/71 56/73/73 67/86/86 66/84/84
f 56/73/73 57/74/74 68/87/87 67/86/86
f 57/74/74 58/75/75 69/88/88 68/87/87
f 58/75/75 59/76/76 70/89/89 69/88/88
f 59/76/76 60/77/77 71/90/90 70/89/89
f 60/77/77 61/78/78 72/91/91 71/90/90
f 62/80/80 63/79/79 74/92/92 73/93/93
f 63/79/79 64/94/94 75/95/95 74/92/92
f 64/94/94 65/85/85 76/96/96 75/95/95
f 65/85/85 66/84/84 77/97/97 76/96/96
f 66/84/84 67/86/86 78/98/98 77/97/97
f 67/86/86 68/87/87 79/99/99 78/98/98
f 68/87/87 69/88/88 80/100/100 79/99/99
f 69/88/88 70/89/89 81/101/101 80/100/100
f 70/89/89 71/90/90 82/102/102 81/101/101
f 71/90/90 72/91/91 83/103/103 82/102/102
f 73/93/93 74/92/92 85/104/104 84/105/105
f 74/92/92 75/95/95 86/106/106 85/104/104
f 75/95/95 76/96/96 87/107/107 86/106/106
f 76/96/96 77/97/97 88/108/108 87/107/107
f 77/97/97 78/98/98 89/109/109 88/108/108
f 78/98/98 79/99/99 90/110/110 89/109/109
f 79/99/99 80/100/100 91/111/111 90/110/110
f 80/100/100 81/101/101 92/112/112 91/111/111
f 81/101/101 82/102/102 93/113/113 92/112/112
f 82/102/102 83/103/103 94/114/114 93/113/113
f 84/105/105 85/104/104 96/115/115 95/116/116
f 85/104/104 86/106/106 97/117/117 96/115/115
f 86/106/106 87/107/107 98/118/118 97/117/117
f 87/107/107 88/108/108 99/119/119 98/118/118
f 88/108/108 89/109/109 100/120/120 99/119/119
f 89/109/109 90/110/110 101/121/121 100/120/120
f 90/110/110 91/111/111 102/122/122 101/121/121
f 91/111/111 92/112/112 103/123/123 102/122/122
f 92/112/112 93/113/113 104/124/124 103/123/123
f 93/113/113 94/114/114 105/125/125 104/124/124
f 95/116/116 96/115/115 107/126/126 106/127/127
f 96/115/115 97/117/117 108/128/128 107/126/126
f 97/117/117 98/118/118 109/129/129 108/128/128
f 98/118/118 99/119/119 110/130/130 109/129/129
f 99/119/119 100/120/120 111/131/131 110/130/130
f 100/120/120 101/121/121 112/132/132 111/131/131
f 101/121/121 102/122/122 113/133/133 112/132/132
f 102/122/122 103/123/123 114/134/134 113/133/133
f 103/123/123 104/124/124 115/135/135 114/134/134
f 104/124/124 105/125/125 116/136/136 115/135/135
s 4
f 2/2/137 3/137/138 118/6/139 117/5/140
s 5
f 13/3/141 2/2/142 117/5/143 120/8/144
s 4
f 3/137/138 4/11/145 121/9/146 118/6/139
s 6
f 4/11/147 14/14/148 122/10/149 121/9/150
s 5
f 23/27/151 13/3/141 120/8/144 124/30/152
s 6
f 14/14/148 24/33/153 125/31/154 122/10/149
s 5
f 33/40/155 23/27/151 124/30/152 127/43/156
s 6
f 24/33/153 34/46/157 128/44/158 125/31/154
s 5
f 43/53/159 33/40/155 127/43/156 130/56/160
s 6
f 34/46/157 44/59/161 131/57/162 128/44/158
s 5
f 53/66/163 43/53/159 130/56/160 133/69/164
s 6
f 44/59/161 54/72/165 134/70/166 131/57/162
s 7
f 64/94/167 63/79/168 136/82/169 135/81/170
s 5
f 63/79/171 53/66/163 133/69/164 136/82/172
s 6
f 54/72/165 65/85/173 137/83/174 134/70/166
s 7
f 65/85/175 64/94/167 135/81/170 137/83/176
