# This file uses centimeters as units for non-parametric coordinates.

mtllib GlasswallNEW.mtl
g default
v -1.397285 -0.500000 0.011437
v 1.397285 -0.500000 0.011437
v -1.397285 0.500000 0.011437
v 1.397285 0.500000 0.011437
v 1.397285 0.500000 -0.011437
v -1.397285 -0.500000 -0.011437
v 1.397285 -0.500000 -0.011437
v -1.397285 -0.500000 -0.011437
v 1.397285 -0.500000 -0.011437
v 1.397285 -0.500000 0.011437
v -1.397285 -0.500000 0.011437
v -1.361020 -0.500000 -0.011437
v -1.361020 -0.500000 -0.011437
v -1.361020 -0.500000 0.011437
v -1.361020 -0.500000 0.011437
v -1.361020 0.500000 0.011437
v -1.361020 0.500000 -0.011437
v 1.364239 -0.500000 -0.011437
v 1.364239 -0.500000 -0.011437
v 1.364239 -0.500000 0.011437
v 1.364239 -0.500000 0.011437
v 1.364239 0.500000 0.011437
v 1.364239 0.500000 -0.011437
v -1.397285 0.500000 -0.011437
v -1.361020 0.500000 -0.011437
v -1.361020 -0.500000 -0.011437
v -1.397285 -0.500000 -0.011437
v -1.397285 0.500000 -1.521570
v -1.361020 0.500000 -1.521570
v -1.361020 -0.500000 -1.521570
v -1.397285 -0.500000 -1.521570
v 1.364239 0.500000 -1.521570
v 1.364239 -0.500000 -1.521570
v 1.397285 0.500000 -1.521570
v 1.397285 -0.500000 -1.521570
vt 0.090522 0.061021
vt 0.090522 0.061021
vt 0.093171 0.061021
vt 0.093171 0.061021
vt 0.090522 0.061021
vt 0.090522 0.061021
vt 0.090522 0.061021
vt 0.093171 0.061021
vt 0.093171 0.061021
vt 0.093171 0.061021
vt 0.093171 0.061021
vt 0.090522 0.061021
vt 0.093171 0.061021
vt 0.093171 0.061021
vt 0.093171 0.061021
vt 0.090522 0.061021
vt 0.090522 0.061021
vt 0.093171 0.238570
vt 0.093171 0.061021
vt 0.093171 0.238570
vt 0.050537 0.275893
vt 0.050537 0.272490
vt 0.053940 0.272490
vt 0.053940 0.275893
vt 0.055521 0.051234
vt 0.055521 0.047832
vt 0.058924 0.047832
vt 0.057175 0.061618
vt 0.051936 0.061618
vt 0.222682 0.534275
vt 0.222682 0.296621
vt 0.581571 0.296621
vt 0.581571 0.534275
vt 0.967343 0.306592
vt 0.967343 0.537372
vt 0.582993 0.044234
vt 0.582993 0.277705
vt 0.230420 0.277705
vt 0.230420 0.044234
vt 0.093613 0.254989
vt 0.095503 0.254989
vt 0.095503 0.400665
vt 0.093613 0.400665
vt 0.165476 0.254989
vt 0.165476 0.400665
vt 0.167199 0.254989
vt 0.167199 0.400665
vt 0.060509 0.051234
vt 0.060509 0.047832
vt 0.063828 0.047832
vt 0.059382 0.051234
vt 0.050136 0.051234
vt 0.050092 0.051234
vt 0.060465 0.047832
vt 0.063868 0.047832
vt 0.059422 0.051234
vt 0.050136 0.275893
vt 0.050092 0.275893
vt 0.059422 0.275893
vt 0.059382 0.275893
vt 0.070396 0.272490
vt 0.070352 0.272490
vt 0.070352 0.047832
vt 0.070396 0.047832
vt 0.076984 0.272490
vt 0.076944 0.272490
vt 0.076944 0.047832
vt 0.076984 0.047832
vt 0.106153 0.058666
vt 0.116502 0.058666
vt 0.116502 0.344032
vt 0.106153 0.344032
vt 0.185892 0.333662
vt 0.185892 0.048297
vt 0.195323 0.048297
vt 0.195323 0.333662
vt 0.129217 0.060210
vt 0.130519 0.060210
vt 0.130519 0.160468
vt 0.129217 0.160468
vt 0.639046 0.773576
vt 0.639046 0.982322
vt 0.070160 0.982322
vt 0.070160 0.773576
vt 0.158030 0.225297
vt 0.158030 0.069046
vt 0.159878 0.069046
vt 0.159878 0.225297
vt 0.618835 0.537372
vt 0.618835 0.306592
vt 0.608903 0.285885
vt 0.608903 0.041440
vt 0.978047 0.041440
vt 0.978047 0.285885
vt 0.422255 0.755420
vt 0.422255 0.549172
vt 0.984337 0.549172
vt 0.984337 0.755420
vt 0.000000 0.023913
vt 0.000000 0.015519
vt 1.000000 0.015519
vt 1.000000 0.023913
vn 0.000000 0.000000 1.000000
vn 0.000000 0.000000 1.000000
vn 0.000000 0.000000 1.000000
vn 0.000000 0.000000 1.000000
vn 0.000000 0.000000 -1.000000
vn 0.000000 0.000000 -1.000000
vn 0.000000 0.000000 -1.000000
vn 0.000000 0.000000 -1.000000
vn 0.000000 -1.000000 0.000000
vn 0.000000 -1.000000 0.000000
vn 0.000000 -1.000000 0.000000
vn 0.000000 -1.000000 0.000000
vn 1.000000 0.000000 0.000000
vn 1.000000 0.000000 0.000000
vn 1.000000 0.000000 0.000000
vn 1.000000 0.000000 0.000000
vn -0.000000 0.000000 0.000000
vn -1.000000 0.000000 0.000000
vn -1.000000 0.000000 0.000000
vn -1.000000 0.000000 0.000000
vn -0.000000 0.000000 0.000000
vn 0.000000 0.000000 0.000000
vn 0.000000 0.000000 0.000000
vn 0.000000 0.000000 0.000000
vn 0.000000 0.000000 0.000000
vn 0.000000 0.000000 0.000000
vn 0.000000 0.000000 0.000000
vn 0.000000 0.000000 0.000000
vn 0.000000 0.000000 0.000000
vn 0.000000 0.000000 0.000000
vn 0.000000 0.000000 0.000000
vn 0.000000 0.000000 0.000000
vn 0.000000 0.000000 0.000000
vn 0.000000 0.000000 0.000000
vn 0.000000 0.000000 0.000000
vn 0.000000 0.000000 0.000000
vn 0.000000 0.000000 0.000000
vn 0.000000 0.000000 0.000000
vn 0.000000 0.000000 0.000000
vn 0.000000 0.000000 0.000000
vn 0.000000 0.000000 0.000000
vn 0.000000 -1.000000 0.000000
vn 0.000000 -1.000000 0.000000
vn 0.000000 0.000000 0.000000
vn 0.000000 0.000000 0.000000
vn 0.000000 0.000000 0.000000
vn 0.000000 0.000000 0.000000
vn 0.000000 0.000000 1.000000
vn 0.000000 0.000000 1.000000
vn 0.000000 1.000000 0.000000
vn 0.000000 1.000000 0.000000
vn 0.000000 1.000000 0.000000
vn 0.000000 1.000000 0.000000
vn 0.000000 0.000000 -1.000000
vn 0.000000 0.000000 -1.000000
vn 0.000000 0.000000 -1.000000
vn 0.000000 0.000000 -1.000000
vn 0.000000 0.000000 0.000000
vn 0.000000 0.000000 0.000000
vn 0.000000 0.000000 0.000000
vn 0.000000 0.000000 0.000000
vn 0.000000 -1.000000 0.000000
vn 0.000000 -1.000000 0.000000
vn 0.000000 0.000000 0.000000
vn 0.000000 0.000000 0.000000
vn 0.000000 0.000000 0.000000
vn 0.000000 0.000000 0.000000
vn 0.000000 0.000000 1.000000
vn 0.000000 0.000000 1.000000
vn 0.000000 1.000000 0.000000
vn 0.000000 1.000000 0.000000
vn 0.000000 0.000000 -1.000000
vn 0.000000 0.000000 -1.000000
vn 0.000000 0.000000 -1.000000
vn 0.000000 0.000000 -1.000000
vn 0.000000 0.000000 0.000000
vn 0.000000 0.000000 0.000000
vn 0.000000 0.000000 0.000000
vn 0.000000 0.000000 0.000000
vn 0.000000 0.000000 0.000000
vn 0.000000 1.000000 0.000000
vn 0.000000 1.000000 0.000000
vn 0.000000 0.000000 0.000000
vn 0.000000 0.000000 0.000000
vn 0.000000 0.000000 0.000000
vn 0.000000 0.000000 0.000000
vn 0.000000 1.000000 0.000000
vn 0.000000 1.000000 0.000000
vn 0.000000 1.000000 0.000000
vn 0.000000 1.000000 0.000000
vn 1.000000 0.000000 0.000000
vn 1.000000 0.000000 0.000000
vn 1.000000 0.000000 0.000000
vn 1.000000 0.000000 0.000000
vn 0.000000 -1.000000 0.000000
vn 0.000000 -1.000000 0.000000
vn 0.000000 -1.000000 0.000000
vn 0.000000 -1.000000 0.000000
vn -1.000000 0.000000 0.000000
vn -1.000000 0.000000 0.000000
vn -1.000000 0.000000 0.000000
vn -1.000000 0.000000 0.000000
vn -1.000000 0.000000 0.000000
vn -1.000000 0.000000 0.000000
vn -1.000000 0.000000 0.000000
vn -1.000000 0.000000 0.000000
vn 0.000000 1.000000 0.000000
vn 0.000000 1.000000 0.000000
vn 1.000000 0.000000 0.000000
vn 1.000000 0.000000 0.000000
vn 0.000000 -1.000000 0.000000
vn 0.000000 -1.000000 0.000000
vn 0.000000 -1.000000 0.000000
vn 0.000000 -1.000000 0.000000
s 1
g pCube1
usemtl initialShadingGroup
f 1/69/1 15/70/2 16/71/3 3/72/4
s off
f 28/77/5 29/78/6 30/79/7 31/80/8
s 2
f 8/40/9 13/41/10 14/42/11 11/43/12
s 3
f 2/21/13 7/22/14 5/23/15 4/24/16
s off
f 6/25/17 1/26/18 3/27/19 24/28/20 27/29/21
f 6/9/22 12/11/23 13/4/24 8/3/25
f 7/8/26 2/7/27 10/12/28 9/13/29
f 15/2/30 1/1/31 11/6/32 14/5/33
f 1/1/34 6/9/35 8/3/36 11/6/37
f 12/11/38 18/14/39 19/15/40 13/4/41
s 2
f 14/99/11 13/100/10 19/101/42 20/102/43
s off
f 21/17/44 15/2/45 14/5/46 20/16/47
s 1
f 16/95/3 15/96/2 21/97/48 22/98/49
s 4
f 17/48/50 16/49/51 22/50/52 23/51/53
s off
f 12/81/54 17/82/55 23/83/56 18/84/57
f 18/14/58 7/8/59 9/13/60 19/15/61
s 2
f 20/45/43 19/44/42 9/46/62 10/47/63
s off
f 2/7/64 21/17/65 20/16/66 10/12/67
s 1
f 22/73/49 21/74/48 2/75/68 4/76/69
s 4
f 23/51/53 22/50/52 4/55/70 5/56/71
s off
f 33/85/72 32/86/73 34/87/74 35/88/75
f 12/11/76 6/9/77 27/10/78 26/19/79
s 4
f 17/48/50 25/52/80 24/53/81 3/54/82 16/49/51
s off
f 12/11/83 26/19/84 25/20/85 17/18/86
f 24/53/87 25/52/88 29/57/89 28/58/90
f 25/30/91 26/31/92 30/32/93 29/33/94
f 26/61/95 27/62/96 31/63/97 30/64/98
f 27/34/99 24/35/100 28/89/101 31/90/102
f 18/36/103 23/37/104 32/38/105 33/39/106
s 4
f 23/51/53 5/56/71 34/59/107 32/60/108
s 3
f 5/91/15 7/92/14 35/93/109 34/94/110
s off
f 7/65/111 18/66/112 33/67/113 35/68/114
