# This file uses centimeters as units for non-parametric coordinates.

mtllib woodenstagetexture.mtl
g default
v -6.889773 0.039984 -3.602456
v 6.889773 0.039984 -3.602456
v -6.889773 0.142786 -3.602456
v 6.889773 0.142786 -3.602456
v -6.889773 0.142786 -11.772192
v 6.889773 0.142786 -11.772192
v -6.889773 0.039984 -11.772192
v 6.889773 0.039984 -11.772192
vt 0.626093 0.345167
vt 0.626093 0.063123
vt 0.629642 0.063123
vt 0.629642 0.345167
vt 0.630657 0.629599
vt 0.630657 0.347556
vt 0.634206 0.347556
vt 0.634206 0.629599
vt 0.046116 0.538833
vt 0.046116 0.063123
vt 0.328159 0.063123
vt 0.328159 0.538833
vt 0.340189 0.538833
vt 0.340189 0.063123
vt 0.622232 0.063123
vt 0.622232 0.538833
vt 0.058459 0.412854
vt 0.058459 0.107280
vt 0.060738 0.107280
vt 0.060738 0.412854
vt 0.332020 0.538833
vt 0.332020 0.063123
vt 0.335569 0.063123
vt 0.335569 0.538833
vn 0.000000 0.000000 1.000000
vn 0.000000 0.000000 1.000000
vn 0.000000 0.000000 1.000000
vn 0.000000 0.000000 1.000000
vn 0.000000 1.000000 0.000000
vn 0.000000 1.000000 0.000000
vn 0.000000 1.000000 0.000000
vn 0.000000 1.000000 0.000000
vn 0.000000 0.000000 -1.000000
vn 0.000000 0.000000 -1.000000
vn 0.000000 0.000000 -1.000000
vn 0.000000 0.000000 -1.000000
vn 0.000000 -1.000000 0.000000
vn 0.000000 -1.000000 0.000000
vn 0.000000 -1.000000 0.000000
vn 0.000000 -1.000000 0.000000
vn 1.000000 0.000000 0.000000
vn 1.000000 0.000000 0.000000
vn 1.000000 0.000000 0.000000
vn 1.000000 0.000000 0.000000
vn -1.000000 0.000000 0.000000
vn -1.000000 0.000000 0.000000
vn -1.000000 0.000000 0.000000
vn -1.000000 0.000000 0.000000
s off
g floor_platform
usemtl initialShadingGroup
f 1/17/1 2/18/2 4/19/3 3/20/4
f 3/9/5 4/10/6 6/11/7 5/12/8
f 5/21/9 6/22/10 8/23/11 7/24/12
f 7/13/13 8/14/14 2/15/15 1/16/16
f 2/1/17 8/2/18 6/3/19 4/4/20
f 7/5/21 1/6/22 3/7/23 5/8/24
g default
v -6.922887 8.000000 -3.567968
v -6.922887 0.061607 -3.567968
v -6.820086 8.000000 -3.567968
v -6.820086 0.061607 -3.567968
v -6.820086 8.000000 -12.567968
v -6.820086 0.061607 -12.567968
v -6.922887 8.000000 -12.567968
v -6.922887 0.061607 -12.567968
vt 0.813884 0.827907
vt 0.650892 0.827907
vt 0.650892 0.643117
vt 0.813884 0.643117
vt 0.979466 0.827907
vt 0.816473 0.827907
vt 0.816473 0.643117
vt 0.979466 0.643117
vt 0.981988 0.827907
vt 0.981988 0.643117
vt 0.984099 0.643117
vt 0.984099 0.827907
vt 0.987128 0.827907
vt 0.987128 0.643117
vt 0.989239 0.643117
vt 0.989239 0.827907
vt 0.982933 0.992255
vt 0.982933 0.829263
vt 0.985044 0.829263
vt 0.985044 0.992255
vt 0.980849 0.829263
vt 0.980849 0.992255
vt 0.978739 0.992255
vt 0.978739 0.829263
vn 0.000000 0.000000 1.000000
vn 0.000000 0.000000 1.000000
vn 0.000000 0.000000 1.000000
vn 0.000000 0.000000 1.000000
vn 1.000000 0.000000 0.000000
vn 1.000000 0.000000 0.000000
vn 1.000000 0.000000 0.000000
vn 1.000000 0.000000 0.000000
vn 0.000000 0.000000 -1.000000
vn 0.000000 0.000000 -1.000000
vn 0.000000 0.000000 -1.000000
vn 0.000000 0.000000 -1.000000
vn -1.000000 0.000000 0.000000
vn -1.000000 0.000000 0.000000
vn -1.000000 0.000000 0.000000
vn -1.000000 0.000000 0.000000
vn 0.000000 -1.000000 0.000000
vn 0.000000 -1.000000 0.000000
vn 0.000000 -1.000000 0.000000
vn 0.000000 -1.000000 0.000000
vn 0.000000 1.000000 0.000000
vn 0.000000 1.000000 0.000000
vn 0.000000 1.000000 0.000000
vn 0.000000 1.000000 0.000000
s off
g side_platform
usemtl initialShadingGroup
f 9/41/25 10/42/26 12/43/27 11/44/28
f 11/25/29 12/26/30 14/27/31 13/28/32
f 13/45/33 14/46/34 16/47/35 15/48/36
f 15/29/37 16/30/38 10/31/39 9/32/40
f 10/33/41 16/34/42 14/35/43 12/36/44
f 15/37/45 9/38/46 11/39/47 13/40/48
